<svg id="Layer_1" data-name="Layer 1" xmlns="http://www.w3.org/2000/svg" viewBox="0 0 251 80"><defs><style>.cls-1{fill:#109a9e;}.cls-2{fill:#6d6e71;}</style></defs><polygon class="cls-1" points="225.46 27.81 126.21 29.9 26.5 28.07 126.67 25.02 225.46 27.81"/><polygon class="cls-2" points="225.46 65.02 126.21 67.11 26.5 65.28 126.67 62.23 225.46 65.02"/><path class="cls-1" d="M141.9,36.4h2.52l4.09,11.39,4.13-11.39h2.52V58.86H153V41.08l-4.37,11.81h-.14l-4.37-11.81V58.86H141.9Z"/><path class="cls-1" d="M158.06,48v-.7c0-7.41,2.55-11.17,6-11.17s6,3.76,6,11.17V48c0,7.42-2.52,11.17-6,11.17S158.06,55.4,158.06,48Zm9.72,0v-.7c0-6.32-1.61-9.24-3.7-9.24s-3.71,2.92-3.71,9.24V48c0,6.33,1.61,9.25,3.71,9.25S167.78,54.31,167.78,48Z"/><path class="cls-1" d="M173,52.89V36.4h2.24V53c0,2.79,1.26,4.24,3.25,4.24s3.26-1.45,3.26-4.24V36.4H184V52.89c0,4-2.2,6.26-5.53,6.26S173,56.87,173,52.89Z"/><path class="cls-1" d="M187.41,36.4h2.27l6.75,16.85V36.4h2.21V58.86H196.5l-6.92-17.33V58.86h-2.17Z"/><path class="cls-1" d="M204.55,38.36h-3.71v-2h9.72v2h-3.74v20.5h-2.27Z"/><path class="cls-1" d="M215.46,36.3h2.45l5.18,22.56h-2.31l-1.3-5.81h-5.66l-1.26,5.81h-2.24Zm3.67,14.86-2.48-11.29-2.48,11.29Z"/><path class="cls-1" d="M225.78,36.4h2.27V58.86h-2.27Z"/><path class="cls-1" d="M231.83,36.4h2.27l6.76,16.85V36.4h2.2V58.86h-2.13L234,41.53V58.86h-2.17Z"/><path class="cls-2" d="M145.93,14.49a2.53,2.53,0,0,0-.36-.2c-.1,0-.22,0-.32-.09a1.09,1.09,0,0,1-.17-.13c0-.16.16-.22.25-.31l.4-.36a1.47,1.47,0,0,0,.35-.59.7.7,0,0,0-.1-.71,2.43,2.43,0,0,0-.3-.34,6.52,6.52,0,0,0-.85-.64,1,1,0,0,0-.52-.17,6.24,6.24,0,0,0-1.55.22,3.94,3.94,0,0,0-1.37.58,14.75,14.75,0,0,0-1.38,1,1.2,1.2,0,0,1-.2.11l-.2-.35c-.28-.5-.54-1-.83-1.49a4.78,4.78,0,0,0-2.32-2A1.94,1.94,0,0,0,136,9c-.05,0-.12,0-.14.11l.67.6.93.78A2,2,0,0,1,138,11c.36.66.71,1.33,1,2a.91.91,0,0,1,.11.47,2.26,2.26,0,0,1-.75.61c-.14-.3-.26-.59-.39-.87a13,13,0,0,0-1.06-1.85,2.43,2.43,0,0,0-1.54-1,.49.49,0,0,0-.34.05,1,1,0,0,0,.45.32,2.39,2.39,0,0,1,.79.66,8.12,8.12,0,0,1,1,1.73,4.58,4.58,0,0,1,.33,1.09c.08.45.07.46-.23.81a.54.54,0,0,1-.45.22,2.14,2.14,0,0,0-1.07.31l-.23.13c-.08-.15-.15-.25-.22-.37a6,6,0,0,0-.81-1.17c-.09-.09-.16-.2-.25-.29a.41.41,0,0,1-.12-.32,5.81,5.81,0,0,0,0-.59c-.07-.64-.17-1.27-.3-1.9a6.66,6.66,0,0,0-.75-2c-.54-.93-1.07-1.86-1.62-2.79a2,2,0,0,0-.33-.47,4,4,0,0,0-1.49-.94,1.17,1.17,0,0,0-.27,0,1.8,1.8,0,0,0,.16.21l.54.35a1.84,1.84,0,0,1,.72.77c.26.52.52,1,.75,1.55.48,1.08.78,2.24,1.16,3.36a3.54,3.54,0,0,1,.09,1.91,1,1,0,0,1-.1.29.39.39,0,0,1-.4.23.9.9,0,0,1-.42-.13,5.4,5.4,0,0,1-.92-.67,11.62,11.62,0,0,1-1.71-1.86,23.62,23.62,0,0,0-2-2.31,4.53,4.53,0,0,0-1-.82,6.57,6.57,0,0,0-1.29-.52,1,1,0,0,0-.24,0c0,.14.08.17.15.22s.33.17.49.27a10,10,0,0,1,1.82,1.56,11.17,11.17,0,0,1,1.58,2.2,2.2,2.2,0,0,1,.23.57,1.38,1.38,0,0,1,0,.67.31.31,0,0,1-.3.29,2.57,2.57,0,0,1-.48,0,8.15,8.15,0,0,1-1.62-.25,3.74,3.74,0,0,1-2.14-1.32,3.59,3.59,0,0,0-1.58-1.13,4.47,4.47,0,0,0-.48-.16c.06.1.07.15.1.17a2.34,2.34,0,0,0,.35.29A6.91,6.91,0,0,1,124.38,12a2.86,2.86,0,0,0,.72.67.89.89,0,0,1,.39,1,.23.23,0,0,1-.21.24,2.31,2.31,0,0,1-.37,0,6.28,6.28,0,0,1-1.55-.2,10,10,0,0,1-2.35-.85c-.24-.14-.49-.26-.73-.39a.32.32,0,0,0-.14,0c0,.2,0,.21.1.25a4.7,4.7,0,0,0,.52.39,4.86,4.86,0,0,1,1,.87c.1.1.2.2.29.31a.32.32,0,0,1,0,.43s-.08.09-.13.16a.77.77,0,0,0,.22.16c.06,0,.14,0,.21.06a.24.24,0,0,1,.17.27c0,.32-.14.48-.43.46l-.85,0s-.1,0-.13.07a.41.41,0,0,0,.11.07c.15.05.31.09.46.15a.72.72,0,0,1,.45.37.48.48,0,0,1-.24.38.76.76,0,0,1-.68.1l-.42-.16a.43.43,0,0,0-.34-.06.76.76,0,0,0,.07.13,1.68,1.68,0,0,0,.53.28,2.14,2.14,0,0,1,.4.2.38.38,0,0,1,.13.18.49.49,0,0,1-.24.61,1.84,1.84,0,0,1-1.2.3c-.05,0-.1,0-.11.1l.26.11.32.1a.23.23,0,0,1,.15.34.51.51,0,0,1-.53.35c-.28,0-.57,0-.85,0s-.25,0-.47.25a.52.52,0,0,0,.19.11c.29.07.58.14.87.18s.55.05.82.08a.39.39,0,0,1,.14.06.92.92,0,0,1-.54.49l-.32.1-.7.25a.53.53,0,0,0-.33.24c0,.07-.08.16,0,.22a.26.26,0,0,0,.17.07,4.4,4.4,0,0,0,.47-.1,5.67,5.67,0,0,1,1.07-.3l1.37-.15a2,2,0,0,0,.72-.2A5,5,0,0,0,124,20a8.9,8.9,0,0,1,1.92-1.19l.48-.22a3,3,0,0,1,.41-.19c.56-.21,1.12-.43,1.68-.63a7.76,7.76,0,0,1,.82-.25,6.36,6.36,0,0,0,1.74-.68,4.27,4.27,0,0,1,1.94-.5,1.49,1.49,0,0,1,.36.05c.14,0,.18.14.15.31s-.08.19-.24.19h-.11a1.05,1.05,0,0,0-.72.05,1.64,1.64,0,0,1-.22,0,2.27,2.27,0,0,0-.72.29.72.72,0,0,0,0,.17c.05.14.1.27.16.4a2.37,2.37,0,0,1,.22.8,1.36,1.36,0,0,1-.22.07l-.74.1a5.94,5.94,0,0,0-1.16.28.9.9,0,0,0-.48.4,6.45,6.45,0,0,1-.37.54.9.9,0,0,0-.21.5l.25.18c.09.06.2.09.26.23a2.31,2.31,0,0,1-.91.43.92.92,0,0,1-.33,0,8,8,0,0,0-1.38-.06,1.29,1.29,0,0,0-.94.39c-.26.27-.51.54-.75.82l-1.46,1.75A6.85,6.85,0,0,1,122,25.54a1.62,1.62,0,0,1-1.52.24,3.62,3.62,0,0,0-1.46-.21,10.35,10.35,0,0,0-1.12.09,3.15,3.15,0,0,0-1,.33,3.62,3.62,0,0,0-1.29,1.23c-.37.52-.71,1.07-1.07,1.62-.1.15-.2.29-.29.45-.33.63-.67,1.26-1,1.9a2.54,2.54,0,0,0-.27.9c0,.39-.07.78-.08,1.18a1.94,1.94,0,0,0,0,.54c.12.59.26,1.18.39,1.77.09.38.2.77.27,1.16l-.85.21a9.07,9.07,0,0,1-1.79.31,3.3,3.3,0,0,1-2.12-.59c-.5-.36-1-.67-1.55-1a2.15,2.15,0,0,0-.84-.32,7.18,7.18,0,0,0-1-.1,5.49,5.49,0,0,0-1.79.28,3.73,3.73,0,0,1-2.29,0l-.49-.17c-.65-.25-1.3-.48-2-.74a3.92,3.92,0,0,0-1.2-.34.63.63,0,0,1-.59-.38.55.55,0,0,0-.4-.31c-.1,0-.19-.09-.28-.1a.81.81,0,0,1-.61-.39l-.21.09-.15-.14s0,0,0,0-.1.27-.26.26,0-.24-.19-.27c-.15.17,0,.42-.16.6l-.26-.08c0,.16,0,.28.07.4a.8.8,0,0,1-.27.89L94,35.2a14.13,14.13,0,0,0-2.13,1.9,1.8,1.8,0,0,0-.42.68,1.69,1.69,0,0,1-.63.9c-.4.31-.75.67-1.12,1a11.69,11.69,0,0,1-1,.79c-.33.25-.67.48-1,.71a.35.35,0,0,0-.15.39,1.91,1.91,0,0,0,.31.7,1.37,1.37,0,0,1,.31.69.7.7,0,0,0,.18.38l.5,0-.06.37a1.88,1.88,0,0,0,.66.05,2.84,2.84,0,0,1,.51.06c.37.13.72.29,1.08.44l.61.24c.14.05.31,0,.42.19s.08,0,.12,0,.12,0,.15,0a.83.83,0,0,0,.53.12c.08,0,.19,0,.24.06s.44.2.66.34c.17-.2.29-.06.37,0h.64l.09-.36.2.16.16-.24.21.1c.15-.15.15-.15.27-.06s.09.1.13.09a.29.29,0,0,1,.24,0,.92.92,0,0,0,.3,0l.12.38.36-.28a.49.49,0,0,0,.52.12.55.55,0,0,1,.59.17l.27.22a2.54,2.54,0,0,0,1,.56.59.59,0,0,1,.19.12c0,.51,0,1,0,1.51a28.57,28.57,0,0,0,.52,4.53c.36,1.76.79,3.5,1.12,5.26.15.83.36,1.66.55,2.49a6.16,6.16,0,0,1,.14,1.36,1.11,1.11,0,0,1-.09.48,5.13,5.13,0,0,1-.5.85,1.11,1.11,0,0,1-.93.48c-.23,0-.46,0-.69,0a.55.55,0,0,0-.29.08,1.38,1.38,0,0,1-.48.28.65.65,0,0,0-.2.17.49.49,0,0,0,0,.14l.28.08c0,.28.18.32.4.33a4.61,4.61,0,0,0,.52,0c.76,0,1.53,0,2.29,0,.54,0,1.08-.08,1.63-.13a1.78,1.78,0,0,0,1.3-.79,4.93,4.93,0,0,0,.81-1.66l.78-2.47a1,1,0,0,1,.06-.16.15.15,0,0,1,.11-.06.23.23,0,0,1,.09.08.57.57,0,0,1,0,.18c.06.45.13.9.16,1.36a3.19,3.19,0,0,0,.4,1.29,3.75,3.75,0,0,1,.24.44,1,1,0,0,1,.05.75.36.36,0,0,1-.26.27,3.78,3.78,0,0,1-.47.06,1.26,1.26,0,0,0-1.07.8.44.44,0,0,0,0,.15l.45-.23c.1.13-.07.28.07.4.14-.05.25-.22.42-.18l.15.22a.76.76,0,0,1,.56-.28c.09.11,0,.26.12.34a1.37,1.37,0,0,1,.24-.18c.09,0,.21-.09.28-.06a1,1,0,0,0,.64,0,4.4,4.4,0,0,1,.51-.05h2.46a2.24,2.24,0,0,0,1.29-.28,1.76,1.76,0,0,0,.86.33,14.31,14.31,0,0,0,2.45.1,7.66,7.66,0,0,0,1.15-.19.66.66,0,0,0,.51-.6.74.74,0,0,0-.08-.44c-.07-.15-.12-.31-.18-.46s0-.1.05-.11a.13.13,0,0,1,.12,0,.79.79,0,0,1,.16.1,1.09,1.09,0,0,0,.06-.25c0-.15,0-.3,0-.45s0,0,0-.08.13.22.28.17,0-.2,0-.29a3,3,0,0,1-.19-.89s0-.05,0-.07.21.13.32,0l-.21-.46.33.06c0-.17-.06-.3-.08-.43s0-.18,0-.22.07-.22.08-.34,0-.23,0-.34l.21,0c0-.06,0-.12,0-.18s0-.3-.06-.45,0-.24.16-.26.16-.16.23-.25a3.06,3.06,0,0,1-.06-.69h0v0a.93.93,0,0,0,.31.81l.11.11a.88.88,0,0,1,.29.77c0,.13,0,.26,0,.39a.4.4,0,0,0,.23.38,2.09,2.09,0,0,0,.35.13l.9.23a5.62,5.62,0,0,0,.7.1c.26,0,.26,0,.34-.29l0-.06c.19.07.37.22.6.09a1.27,1.27,0,0,0-.18-.39l-1.76-3a4.07,4.07,0,0,1-.42-1c0-.14-.07-.28-.1-.42l.12-.08.25-.11c0,.24-.1.45,0,.65l.22,0c0,.14-.16.22,0,.37l.44,0c0,.24-.28.35-.25.59.23.11.34-.26.57-.13a4,4,0,0,0-.22.34.13.13,0,0,0,0,.2c.2-.12.38-.35.66-.35-.09.26-.47.31-.38.67.39-.23.39-.23.55-.22,0,.18-.13.3-.2.44s-.13.24-.06.38h.35c0,.13-.12.25,0,.35l.25-.1.05.33.23,0v.34l.24.24c.08,0,.16-.07.26,0l-.06.35a.41.41,0,0,0,0,.16l-.09.38c-.11.41-.23.81-.33,1.21a2.16,2.16,0,0,0-.1.66c0,.61,0,1.21,0,1.81-.29,0-.34.11-.57.51,0,0,0,0,0,0a.82.82,0,0,1,.28.14.92.92,0,0,0,.7.3,5,5,0,0,0,.73.56c.07.06.18,0,.18-.12s0-.21,0-.31,0-.11,0-.17h.25l0,0c.06.1.09.22.15.32s.1.1.17.17a1,1,0,0,0,.09-.2l.09-.36c.39,0,.79,0,1.19,0h0a2.17,2.17,0,0,0,1.27-.35,1.6,1.6,0,0,0,.79-1.13c.1-.64.19-1.29.26-1.94s.07-1.13.1-1.69c0-.36,0-.73.06-1.09a10,10,0,0,0-.28-3.4c-.14-.6-.3-1.2-.44-1.81a7.78,7.78,0,0,1-.21-1.07c-.13-1.09-.23-2.18-.33-3.27a6.39,6.39,0,0,0-.47-1.89l-.26-.6a9.92,9.92,0,0,1,.54-1.44c.08-.19.18-.31.38-.31l.11,0c.27-.06.53-.13.8-.18a.21.21,0,0,1,.25.25.5.5,0,0,1,0,.12,3.39,3.39,0,0,0-.12,1.05c0,.42,0,.85,0,1.27a3.53,3.53,0,0,0,.11.65c.08.32.18.63.28.94a6.67,6.67,0,0,1,.22,2.77,3.74,3.74,0,0,0,.23,1.85c.12.29.24.58.34.88a3.5,3.5,0,0,1,.15.73,29.19,29.19,0,0,1,0,3.5,3,3,0,0,1-.06.43c-.11.46-.22.92-.34,1.38a2.09,2.09,0,0,0-.06.66.58.58,0,0,0,.11.37,1.46,1.46,0,0,1,.27.64,1.43,1.43,0,0,0,.35.68l.45.47a2.35,2.35,0,0,0,1.54.71l.23,0,0-.31.33,0a5.22,5.22,0,0,0-.29-.87l-.37-.9L132,60.2c-.1-.27-.22-.53-.31-.8a2.4,2.4,0,0,1-.12-.53,28.28,28.28,0,0,1-.16-4.41,10.2,10.2,0,0,1,.39-2.4,2.08,2.08,0,0,0,.09-.86,7,7,0,0,1-.09-1c0-.68.05-1.36.1-2a9.31,9.31,0,0,1,.14-1.06c.15-.81.33-1.62.49-2.43a4.9,4.9,0,0,1,.66-1.74,3.55,3.55,0,0,0,.3-.54c.35-.76.69-1.52,1-2.28a4.1,4.1,0,0,0,.4-1.82c0-.5,0-1,0-1.5a3.85,3.85,0,0,0,0-.48c-.07-.5-.15-1-.23-1.51-.05-.33-.09-.65-.14-1a2,2,0,0,1,.59-1.74,4.37,4.37,0,0,1,.44-.42,2.91,2.91,0,0,0,.83-1.15c.2-.5.4-1,.61-1.48a7.1,7.1,0,0,1,.7-1.34,3.17,3.17,0,0,1,.49-.55c.05.05.1.07.12.11a2.24,2.24,0,0,1,.42,1,4.41,4.41,0,0,1-.06,1.45c-.06.39-.15.77-.22,1.16a1.87,1.87,0,0,0,0,.58l.13-.06v.5c0,.17,0,.34,0,.51a1.08,1.08,0,0,0,.07.47l.14-.12c0,.2,0,.38.05.56,0,0,0,0,.06,0,.1-.27.09-.56.22-.85l.17.28.06-.34.15.32.07-.2c.09,0,.05.16.16.12l.08-.25.08.34.16-.23,0,.58c0-.24.06-.38.09-.52a6,6,0,0,0,.16-1.64,3.64,3.64,0,0,1,0-.66,1.93,1.93,0,0,0-.09-1,1.51,1.51,0,0,1-.09-.73.34.34,0,0,1,.06-.12c.08,0,.11.11.21,0v-.56l.15-.09V27s0,0,0-.05l.17.14c0-.3-.1-.57,0-.84l.12,0,0-.25.28.16-.15-.33.16,0,0-.21.15.05c0-.31,0-.31,0-.49l.2.41c0-.14,0-.28.09-.32s0-.22,0-.32,0-.17.07-.21.14.07.19.13.05,0,.11.06v-.5c.15,0,.16-.24.32-.21,0,0,0,0,0-.06s.12-.18.3-.25c0-.09,0-.17,0-.26s0-.15,0-.19,0-.22,0-.33,0-.13,0-.21l.27-.07-.1-.45.16,0-.12-.36.21-.1c0-.13-.07-.24-.11-.35s0-.14.08-.2-.11-.2-.16-.31-.07-.22-.12-.32-.15-.18-.11-.32H143a1.65,1.65,0,0,0-.41-.93l.23,0c0-.18,0-.35,0-.52s.09-.57.11-.86a.56.56,0,0,1,.25-.45,3.79,3.79,0,0,1,.91-.53,8.26,8.26,0,0,0,.92-.51,3.37,3.37,0,0,0,.63-.56,2.7,2.7,0,0,0,.49-.88A.59.59,0,0,0,145.93,14.49ZM113.4,63.13c-.15-.8-.32-1.6-.44-2.4,0-.41,0-.82,0-1.24s0-.91-.07-1.36c-.06-.81-.13-1.61-.2-2.41,0-.3-.07-.61-.1-.91,0-.1,0-.2,0-.31.22,0,.31.2.46.27a.67.67,0,0,1,.35.63c0,.77.12,1.54.16,2.32a23.42,23.42,0,0,0,.28,2.49c.1.62.2,1.25.28,1.89A.89.89,0,0,1,113.4,63.13Zm7.15-8.86a.63.63,0,0,1,.12-.1,1.25,1.25,0,0,1,0,.58C120.62,54.59,120.59,54.43,120.55,54.27Zm13.82-38.11a.25.25,0,0,1-.29-.3c0-.23.06-.45.09-.67s0-.25.05-.38c.19,0,.27.15.37.26a1.72,1.72,0,0,1,.34.9A1.14,1.14,0,0,1,134.37,16.16Z"/><path class="cls-1" d="M8.94,36.4H17.2v2h-6v8.47H16.6v1.92H11.21V58.86H8.94Z"/><path class="cls-1" d="M22.9,36.3h2.45l5.17,22.56H28.21l-1.29-5.81H21.25L20,58.86H17.76Zm3.67,14.86L24.09,39.87,21.6,51.16Z"/><path class="cls-1" d="M31,36.4h2.38l2.9,18,3.5-18h2.1l3.46,18,2.94-18h2.31L46.47,59H44.2L40.77,41.08,37.31,59H35.07Z"/><path class="cls-1" d="M53.15,36.4h2.28l6.75,16.85V36.4h2.2V58.86H62.25L55.32,41.53V58.86H53.15Z"/><path class="cls-1" d="M68.09,36.4h2.27V58.86H68.09Z"/><path class="cls-1" d="M74.14,36.4h8.61v2H76.42v8.21h5.73v2H76.42v8.38h6.43v2H74.14Z"/></svg>